<svg width="115" height="34" viewBox="0 0 115 34" fill="none" xmlns="http://www.w3.org/2000/svg">
<path d="M114.361 29.6683C114.361 31.4388 112.897 32.8728 111.086 32.8728H3.91772C2.1078 32.8728 0.638672 31.4388 0.638672 29.6683V4.11303C0.638672 2.34342 2.1078 0.904297 3.91772 0.904297H111.085C112.897 0.904297 114.36 2.34342 114.36 4.11303L114.361 29.6683Z" fill="black"/>
<path d="M110.741 0.943261C112.713 0.943261 114.317 2.50782 114.317 4.43056V29.3472C114.317 31.27 112.713 32.8345 110.741 32.8345H4.25926C2.28722 32.8345 0.682546 31.27 0.682546 29.3472V4.43056C0.682546 2.50782 2.28722 0.943261 4.25926 0.943261H110.741ZM110.741 0.277779H4.25926C1.91773 0.277779 0 2.14757 0 4.43056V29.3472C0 31.6302 1.91773 33.5 4.25926 33.5H110.741C113.082 33.5 115 31.6302 115 29.3472V4.43056C115 2.14757 113.082 0.277779 110.741 0.277779Z" fill="#273144"/>
<path d="M25.6648 16.7076C25.6401 14.0307 27.9128 12.7284 28.0167 12.6678C26.7296 10.8381 24.7345 10.5881 24.0335 10.5681C22.3579 10.3962 20.7325 11.5457 19.879 11.5457C19.0084 11.5457 17.694 10.5847 16.2774 10.613C14.4544 10.6404 12.749 11.6694 11.8136 13.2674C9.88335 16.5257 11.323 21.3139 13.1724 23.9476C14.0975 25.2374 15.1785 26.6776 16.5934 26.6269C17.9776 26.5713 18.4947 25.7665 20.1652 25.7665C21.8204 25.7665 22.3059 26.6269 23.7489 26.5945C25.2346 26.5713 26.1699 25.2989 27.0626 23.9974C28.1317 22.519 28.5611 21.063 28.5781 20.9883C28.5432 20.9767 25.6929 19.916 25.6648 16.7076Z" fill="white"/>
<path d="M22.9388 8.83559C23.6834 7.9278 24.1928 6.69276 24.0514 5.43945C22.9738 5.48596 21.6261 6.16619 20.8501 7.05405C20.1635 7.83644 19.5502 9.11881 19.7086 10.3248C20.9191 10.4128 22.1619 9.72927 22.9388 8.83559Z" fill="white"/>
<path d="M41.7834 8.58994C41.7834 9.5675 41.4827 10.3034 40.8822 10.7976C40.3259 11.2535 39.5354 11.4819 38.5115 11.4819C38.0038 11.4819 37.5693 11.4603 37.2056 11.4171V6.07585C37.68 6.0011 38.1912 5.96289 38.7432 5.96289C39.7185 5.96289 40.4537 6.1697 40.9495 6.58332C41.5049 7.05092 41.7834 7.71952 41.7834 8.58994ZM40.8421 8.61402C40.8421 7.98031 40.6701 7.49443 40.3259 7.15557C39.9818 6.81753 39.4792 6.6481 38.8173 6.6481C38.5362 6.6481 38.2968 6.66637 38.0983 6.70458V10.7652C38.2082 10.7818 38.4092 10.7892 38.7014 10.7892C39.3846 10.7892 39.9119 10.604 40.2833 10.2336C40.6547 9.86318 40.8421 9.32332 40.8421 8.61402Z" fill="white"/>
<path d="M46.7743 9.44441C46.7743 10.0466 46.598 10.5399 46.2453 10.927C45.8756 11.3248 45.3858 11.5233 44.7742 11.5233C44.1847 11.5233 43.7153 11.3331 43.3652 10.951C43.0159 10.5698 42.8413 10.0889 42.8413 9.5092C42.8413 8.90289 43.021 8.40539 43.3822 8.01918C43.7434 7.63297 44.229 7.43945 44.8406 7.43945C45.4301 7.43945 45.9037 7.62965 46.2623 8.01088C46.6031 8.3813 46.7743 8.8597 46.7743 9.44441ZM45.8483 9.47265C45.8483 9.11136 45.7683 8.80156 45.609 8.54326C45.4216 8.23097 45.1549 8.07483 44.8082 8.07483C44.4496 8.07483 44.177 8.23097 43.9896 8.54326C43.8295 8.80156 43.7502 9.11634 43.7502 9.48843C43.7502 9.84973 43.8303 10.1595 43.9896 10.4178C44.183 10.7301 44.4522 10.8863 44.7997 10.8863C45.1405 10.8863 45.4079 10.7276 45.6005 10.4095C45.7657 10.1462 45.8483 9.83394 45.8483 9.47265Z" fill="white"/>
<path d="M53.4666 7.51953L52.2101 11.4348H51.3923L50.8718 9.73462C50.7398 9.31021 50.6325 8.88829 50.549 8.46969H50.5328C50.4553 8.89991 50.348 9.32101 50.21 9.73462L49.6571 11.4348H48.83L47.6484 7.51953H48.5659L49.0199 9.38081C49.1298 9.821 49.2201 10.2404 49.2925 10.6374H49.3087C49.3751 10.3102 49.485 9.89326 49.6401 9.38911L50.21 7.52036H50.9374L51.4835 9.34925C51.6155 9.79525 51.7228 10.2247 51.8055 10.6383H51.8302C51.8907 10.2354 51.9818 9.80605 52.1028 9.34925L52.59 7.52036H53.4666V7.51953Z" fill="white"/>
<path d="M58.0945 11.435H57.2018V9.19246C57.2018 8.50144 56.9326 8.15593 56.3926 8.15593C56.1276 8.15593 55.9138 8.25061 55.7477 8.44081C55.5833 8.63101 55.4998 8.85526 55.4998 9.1119V11.4341H54.6071V8.63848C54.6071 8.29463 54.596 7.92171 54.5747 7.51806H55.3593L55.401 8.13018H55.4257C55.5296 7.93999 55.6847 7.78301 55.8883 7.6576C56.1302 7.51142 56.4011 7.4375 56.6975 7.4375C57.0723 7.4375 57.3841 7.55544 57.632 7.79215C57.9404 8.08201 58.0945 8.51473 58.0945 9.08948V11.435V11.435Z" fill="white"/>
<path d="M60.5564 11.4344H59.6646V5.72266H60.5564V11.4344Z" fill="white"/>
<path d="M65.8124 9.44441C65.8124 10.0466 65.6361 10.5399 65.2834 10.927C64.9137 11.3248 64.423 11.5233 63.8123 11.5233C63.2219 11.5233 62.7525 11.3331 62.4033 10.951C62.054 10.5698 61.8794 10.0889 61.8794 9.5092C61.8794 8.90289 62.0591 8.40539 62.4203 8.01918C62.7815 7.63297 63.2671 7.43945 63.8778 7.43945C64.4682 7.43945 64.9409 7.62965 65.3004 8.01088C65.6412 8.3813 65.8124 8.8597 65.8124 9.44441ZM64.8856 9.47265C64.8856 9.11136 64.8055 8.80156 64.6462 8.54326C64.4597 8.23097 64.1922 8.07483 63.8463 8.07483C63.4868 8.07483 63.2142 8.23097 63.0277 8.54326C62.8675 8.80156 62.7883 9.11634 62.7883 9.48843C62.7883 9.84973 62.8684 10.1595 63.0277 10.4178C63.2211 10.7301 63.4902 10.8863 63.8378 10.8863C64.1785 10.8863 64.4452 10.7276 64.6377 10.4095C64.8038 10.1462 64.8856 9.83394 64.8856 9.47265Z" fill="white"/>
<path d="M70.1331 11.4344H69.3315L69.2651 10.9834H69.2403C68.9661 11.3431 68.5751 11.5233 68.0673 11.5233C67.6883 11.5233 67.3816 11.4045 67.1508 11.1686C66.9412 10.9544 66.8364 10.6878 66.8364 10.3713C66.8364 9.89291 67.0409 9.5283 67.4523 9.27581C67.8629 9.02332 68.4405 8.89957 69.1841 8.90538V8.83229C69.1841 8.31652 68.9064 8.05905 68.3502 8.05905C67.9541 8.05905 67.6048 8.15622 67.3032 8.34891L67.1218 7.77749C67.4949 7.55241 67.9558 7.43945 68.4992 7.43945C69.5487 7.43945 70.0752 7.97931 70.0752 9.05904V10.5009C70.0752 10.8921 70.0948 11.2035 70.1331 11.4344ZM69.2063 10.0889V9.48511C68.2215 9.4685 67.7292 9.73179 67.7292 10.2741C67.7292 10.4785 67.7854 10.6313 67.9004 10.7334C68.0154 10.8356 68.1619 10.8863 68.3365 10.8863C68.5325 10.8863 68.7156 10.8256 68.8826 10.7052C69.0504 10.5839 69.1535 10.4303 69.1918 10.2417C69.2012 10.1994 69.2063 10.1479 69.2063 10.0889Z" fill="white"/>
<path d="M75.2059 11.4344H74.4137L74.3719 10.8057H74.3472C74.0942 11.2841 73.6632 11.5233 73.0575 11.5233C72.5737 11.5233 72.1707 11.338 71.8513 10.9676C71.5319 10.5972 71.3726 10.1163 71.3726 9.52577C71.3726 8.89206 71.5455 8.37877 71.893 7.98675C72.2295 7.62131 72.6418 7.43858 73.1325 7.43858C73.6717 7.43858 74.0491 7.61549 74.2637 7.97014H74.2808V5.72266H75.1744V10.3796C75.1744 10.7608 75.1846 11.1121 75.2059 11.4344ZM74.2808 9.78324V9.13043C74.2808 9.01747 74.2723 8.92611 74.2561 8.85634C74.2058 8.64704 74.0976 8.47096 73.9332 8.32894C73.7671 8.18691 73.5669 8.11549 73.3361 8.11549C73.003 8.11549 72.7423 8.24422 72.5507 8.50253C72.3607 8.76083 72.2644 9.09056 72.2644 9.49338C72.2644 9.88042 72.3556 10.1944 72.5387 10.4361C72.7321 10.6935 72.9928 10.8223 73.319 10.8223C73.6121 10.8223 73.8463 10.7151 74.0244 10.5C74.1964 10.3015 74.2808 10.0623 74.2808 9.78324Z" fill="white"/>
<path d="M82.8412 9.44441C82.8412 10.0466 82.6649 10.5399 82.3122 10.927C81.9425 11.3248 81.4535 11.5233 80.8411 11.5233C80.2524 11.5233 79.7831 11.3331 79.4321 10.951C79.0828 10.5698 78.9082 10.0889 78.9082 9.5092C78.9082 8.90289 79.0879 8.40539 79.4491 8.01918C79.8103 7.63297 80.2959 7.43945 80.9083 7.43945C81.497 7.43945 81.9715 7.62965 82.3292 8.01088C82.67 8.3813 82.8412 8.8597 82.8412 9.44441ZM81.9161 9.47265C81.9161 9.11136 81.836 8.80156 81.6767 8.54326C81.4885 8.23097 81.2227 8.07483 80.8751 8.07483C80.5174 8.07483 80.2448 8.23097 80.0565 8.54326C79.8963 8.80156 79.8171 9.11634 79.8171 9.48843C79.8171 9.84973 79.8972 10.1595 80.0565 10.4178C80.2499 10.7301 80.5191 10.8863 80.8666 10.8863C81.2074 10.8863 81.4757 10.7276 81.6682 10.4095C81.8326 10.1462 81.9161 9.83394 81.9161 9.47265Z" fill="white"/>
<path d="M87.6411 11.435H86.7492V9.19246C86.7492 8.50144 86.48 8.15593 85.9391 8.15593C85.6741 8.15593 85.4603 8.25061 85.2951 8.44081C85.1298 8.63101 85.0472 8.85526 85.0472 9.1119V11.4341H84.1536V8.63848C84.1536 8.29463 84.1434 7.92171 84.1221 7.51806H84.9058L84.9475 8.13018H84.9722C85.077 7.93999 85.232 7.78301 85.4348 7.6576C85.6775 7.51142 85.9476 7.4375 86.2449 7.4375C86.6188 7.4375 86.9306 7.55544 87.1785 7.79215C87.4877 8.08201 87.6411 8.51473 87.6411 9.08948V11.435V11.435Z" fill="white"/>
<path d="M93.6493 8.17198H92.6662V10.074C92.6662 10.5573 92.8409 10.799 93.1867 10.799C93.3469 10.799 93.4798 10.7857 93.5845 10.7583L93.6075 11.4186C93.4312 11.4834 93.1995 11.5158 92.9141 11.5158C92.5615 11.5158 92.2872 11.4111 92.0887 11.2018C91.8893 10.9925 91.7905 10.6404 91.7905 10.1462V8.17198H91.2036V7.51999H91.7905V6.80239L92.6654 6.54492V7.51916H93.6484V8.17198H93.6493Z" fill="white"/>
<path d="M98.3752 11.4344H97.4816V9.2085C97.4816 8.50668 97.2124 8.15535 96.6732 8.15535C96.2592 8.15535 95.9764 8.35884 95.8213 8.76581C95.7949 8.85136 95.7796 8.95601 95.7796 9.07893V11.4336H94.8877V5.72266H95.7796V8.08226H95.7966C96.0777 7.65287 96.4807 7.43858 97.0029 7.43858C97.3726 7.43858 97.6784 7.55652 97.9212 7.79323C98.2236 8.08808 98.3752 8.52661 98.3752 9.10634V11.4344V11.4344Z" fill="white"/>
<path d="M103.25 9.29125C103.25 9.4474 103.238 9.57863 103.217 9.68577H100.54C100.552 10.0728 100.679 10.3677 100.927 10.572C101.154 10.7547 101.446 10.8461 101.804 10.8461C102.2 10.8461 102.561 10.7846 102.887 10.6608L103.026 11.2655C102.645 11.4266 102.197 11.5072 101.679 11.5072C101.057 11.5072 100.567 11.3286 100.213 10.9715C99.8565 10.6143 99.6802 10.1351 99.6802 9.53378C99.6802 8.94325 99.8446 8.45156 100.176 8.05954C100.522 7.64094 100.989 7.43164 101.58 7.43164C102.157 7.43164 102.596 7.64094 102.893 8.05954C103.132 8.39176 103.25 8.80289 103.25 9.29125ZM102.398 9.06617C102.405 8.80787 102.346 8.58528 102.226 8.39758C102.07 8.15589 101.835 8.03462 101.515 8.03462C101.224 8.03462 100.986 8.15256 100.805 8.38927C100.656 8.57781 100.569 8.80289 100.54 9.06617H102.398Z" fill="white"/>
<path d="M45.698 26.4417H43.7634L42.7037 23.1951H39.0203L38.0109 26.4417H36.1274L39.7768 15.3887H42.0308L45.698 26.4417ZM42.3843 21.833L41.426 18.9468C41.3246 18.6519 41.1346 17.9576 40.8544 16.8646H40.8203C40.7087 17.3347 40.529 18.029 40.2819 18.9468L39.3406 21.833H42.3843V21.833Z" fill="white"/>
<path d="M55.0829 22.3573C55.0829 23.7127 54.7072 24.7841 53.9559 25.5707C53.2829 26.2708 52.4473 26.6205 51.4498 26.6205C50.373 26.6205 49.5995 26.2434 49.1285 25.4893H49.0944V29.6877H47.2782V21.094C47.2782 20.2418 47.2552 19.3673 47.2109 18.4703H48.8082L48.9095 19.7335H48.9436C49.5493 18.7817 50.4684 18.3066 51.7019 18.3066C52.6662 18.3066 53.4712 18.6779 54.1152 19.4212C54.7609 20.1654 55.0829 21.1438 55.0829 22.3573ZM53.2327 22.422C53.2327 21.6463 53.0538 21.0068 52.6943 20.5035C52.3016 19.9785 51.7743 19.7161 51.1133 19.7161C50.6652 19.7161 50.258 19.8623 49.8943 20.1505C49.5297 20.4412 49.2912 20.8207 49.1796 21.2908C49.1233 21.5101 49.0952 21.6895 49.0952 21.8307V23.1596C49.0952 23.7393 49.2775 24.2285 49.6421 24.628C50.0067 25.0275 50.4803 25.2268 51.063 25.2268C51.747 25.2268 52.2795 24.9694 52.6602 24.4561C53.0419 23.942 53.2327 23.2642 53.2327 22.422Z" fill="white"/>
<path d="M64.4849 22.3573C64.4849 23.7127 64.1092 24.7841 63.357 25.5707C62.6849 26.2708 61.8493 26.6205 60.8517 26.6205C59.775 26.6205 59.0015 26.2434 58.5313 25.4893H58.4972V29.6877H56.6811V21.094C56.6811 20.2418 56.6581 19.3673 56.6138 18.4703H58.211L58.3124 19.7335H58.3464C58.9512 18.7817 59.8704 18.3066 61.1047 18.3066C62.0682 18.3066 62.8732 18.6779 63.5189 19.4212C64.162 20.1654 64.4849 21.1438 64.4849 22.3573ZM62.6347 22.422C62.6347 21.6463 62.4549 21.0068 62.0954 20.5035C61.7027 19.9785 61.1771 19.7161 60.5153 19.7161C60.0663 19.7161 59.66 19.8623 59.2954 20.1505C58.9308 20.4412 58.6931 20.8207 58.5815 21.2908C58.5262 21.5101 58.4972 21.6895 58.4972 21.8307V23.1596C58.4972 23.7393 58.6795 24.2285 59.0424 24.628C59.407 25.0267 59.8806 25.2268 60.465 25.2268C61.149 25.2268 61.6814 24.9694 62.0622 24.4561C62.4438 23.942 62.6347 23.2642 62.6347 22.422Z" fill="white"/>
<path d="M74.9968 23.3419C74.9968 24.2821 74.662 25.0471 73.9899 25.6376C73.2513 26.2829 72.2231 26.6052 70.9019 26.6052C69.6821 26.6052 68.7041 26.3759 67.9639 25.9166L68.3847 24.4407C69.182 24.9108 70.0569 25.1467 71.0101 25.1467C71.6941 25.1467 72.2265 24.9956 72.609 24.6949C72.9898 24.3942 73.1798 23.9906 73.1798 23.4873C73.1798 23.0388 73.023 22.6609 72.7087 22.3544C72.3961 22.0479 71.8739 21.763 71.1447 21.4998C69.1599 20.778 68.1683 19.7207 68.1683 18.3304C68.1683 17.4217 68.5159 16.6767 69.2118 16.097C69.9052 15.5164 70.8303 15.2266 71.9872 15.2266C73.0188 15.2266 73.8757 15.4018 74.5598 15.7515L74.1057 17.195C73.4668 16.8561 72.7445 16.6867 71.9361 16.6867C71.2972 16.6867 70.798 16.8403 70.4402 17.146C70.1378 17.4192 69.9862 17.7523 69.9862 18.1468C69.9862 18.5837 70.1591 18.945 70.5066 19.229C70.8091 19.4915 71.3585 19.7755 72.1558 20.082C73.1312 20.4649 73.8476 20.9125 74.3085 21.4258C74.7676 21.9375 74.9968 22.5778 74.9968 23.3419Z" fill="white"/>
<path d="M81.0012 19.8011H78.9993V23.6706C78.9993 24.6548 79.352 25.1465 80.059 25.1465C80.3836 25.1465 80.6528 25.1191 80.8657 25.0643L80.916 26.409C80.5582 26.5394 80.0871 26.605 79.5036 26.605C78.7864 26.605 78.2258 26.3915 77.8212 25.9655C77.4183 25.5386 77.2155 24.8226 77.2155 23.8168V19.7994H76.0229V18.4705H77.2155V17.0112L78.9993 16.4863V18.4705H81.0012V19.8011Z" fill="white"/>
<path d="M90.0334 22.3908C90.0334 23.6158 89.6739 24.6216 88.9567 25.4082C88.2045 26.218 87.2061 26.6216 85.9616 26.6216C84.7622 26.6216 83.8072 26.2338 83.0951 25.458C82.3829 24.6823 82.0269 23.7031 82.0269 22.5228C82.0269 21.2878 82.3932 20.2762 83.1283 19.4896C83.8617 18.7023 84.8516 18.3086 86.0962 18.3086C87.2956 18.3086 88.2607 18.6965 88.989 19.473C89.6859 20.2263 90.0334 21.1989 90.0334 22.3908ZM88.1491 22.4481C88.1491 21.713 87.9881 21.0826 87.6619 20.5569C87.2811 19.9207 86.7367 19.6034 86.0314 19.6034C85.3014 19.6034 84.7468 19.9215 84.366 20.5569C84.0398 21.0835 83.8788 21.7238 83.8788 22.4813C83.8788 23.2163 84.0398 23.8467 84.366 24.3716C84.7587 25.0079 85.3073 25.3251 86.0152 25.3251C86.7086 25.3251 87.253 25.0012 87.6457 24.355C87.9804 23.8193 88.1491 23.1823 88.1491 22.4481Z" fill="white"/>
<path d="M95.9369 20.0276C95.7572 19.9952 95.5655 19.9785 95.3645 19.9785C94.7256 19.9785 94.2315 20.2136 93.8839 20.6845C93.5815 21.0998 93.4299 21.6247 93.4299 22.2584V26.4403H91.6146L91.6316 20.9802C91.6316 20.0616 91.6086 19.2252 91.5635 18.4711H93.1454L93.2118 19.996H93.2621C93.4537 19.4719 93.7562 19.05 94.1702 18.7335C94.5748 18.4487 95.0118 18.3066 95.4829 18.3066C95.6507 18.3066 95.8023 18.3183 95.9369 18.339V20.0276Z" fill="white"/>
<path d="M104.06 22.0795C104.06 22.3967 104.038 22.6642 103.993 22.8826H98.5446C98.5659 23.67 98.8291 24.2721 99.3351 24.6874C99.7943 25.0587 100.388 25.2447 101.117 25.2447C101.924 25.2447 102.66 25.1193 103.322 24.8676L103.606 26.0969C102.833 26.4258 101.92 26.5894 100.866 26.5894C99.5984 26.5894 98.6034 26.2256 97.8793 25.4989C97.157 24.7721 96.7949 23.7962 96.7949 22.572C96.7949 21.3702 97.1314 20.3694 97.8052 19.5712C98.5106 18.719 99.4638 18.293 100.663 18.293C101.841 18.293 102.733 18.719 103.339 19.5712C103.818 20.2481 104.06 21.0853 104.06 22.0795ZM102.328 21.6202C102.34 21.0953 102.221 20.6418 101.975 20.2589C101.661 19.7664 101.178 19.5205 100.528 19.5205C99.934 19.5205 99.451 19.7606 99.0821 20.2423C98.7797 20.6252 98.6 21.0845 98.5446 21.6193H102.328V21.6202Z" fill="white"/>
</svg>
