<svg width="115" height="34" viewBox="0 0 115 34" fill="none" xmlns="http://www.w3.org/2000/svg">
<path d="M110.741 33.5H4.25926C1.91773 33.5 0 31.6302 0 29.3472V4.43056C0 2.14757 1.91773 0.277779 4.25926 0.277779H110.741C113.082 0.277779 115 2.14757 115 4.43056V29.3472C115 31.6302 113.082 33.5 110.741 33.5Z" fill="black"/>
<path d="M110.741 0.943261C112.713 0.943261 114.317 2.50782 114.317 4.43056V29.3472C114.317 31.27 112.713 32.8345 110.741 32.8345H4.25926C2.28722 32.8345 0.682546 31.27 0.682546 29.3472V4.43056C0.682546 2.50782 2.28722 0.943261 4.25926 0.943261H110.741ZM110.741 0.277779H4.25926C1.91773 0.277779 0 2.14757 0 4.43056V29.3472C0 31.6302 1.91773 33.5 4.25926 33.5H110.741C113.082 33.5 115 31.6302 115 29.3472V4.43056C115 2.14757 113.082 0.277779 110.741 0.277779Z" fill="#A6A6A6"/>
<path d="M8.8887 6.53713C8.63847 6.79253 8.49365 7.19016 8.49365 7.7051V26.0728C8.49365 26.5878 8.63847 26.9854 8.8887 27.2408L8.95046 27.2969L19.507 17.0084V16.7654L8.95046 6.47692L8.8887 6.53713Z" fill="url(#paint0_linear_274_27665)"/>
<path d="M23.0218 20.4395L19.5068 17.0082V16.7653L23.026 13.3341L23.1048 13.3787L27.2725 15.6908C28.4619 16.3469 28.4619 17.4266 27.2725 18.0869L23.1048 20.3948L23.0218 20.4395V20.4395Z" fill="url(#paint1_linear_274_27665)"/>
<path d="M23.105 20.3953L19.507 16.8872L8.88867 27.2411C9.28372 27.646 9.92793 27.6948 10.6605 27.2899L23.105 20.3953" fill="url(#paint2_linear_274_27665)"/>
<path d="M23.105 13.3787L10.6605 6.48401C9.92793 6.08327 9.28372 6.13206 8.88867 6.53696L19.507 16.8867L23.105 13.3787Z" fill="url(#paint3_linear_274_27665)"/>
<path d="M40.393 8.78671C40.393 9.48022 40.1801 10.0357 39.7605 10.4499C39.2782 10.941 38.6499 11.1881 37.8801 11.1881C37.1443 11.1881 36.5161 10.9368 36.0007 10.4416C35.4842 9.9391 35.2266 9.32242 35.2266 8.58426C35.2266 7.8461 35.4842 7.22942 36.0007 6.73108C36.5161 6.23171 37.1443 5.98047 37.8801 5.98047C38.2464 5.98047 38.5956 6.05418 38.9289 6.19122C39.2611 6.3293 39.5316 6.51618 39.7275 6.74666L39.2824 7.18477C38.9406 6.7913 38.4753 6.59716 37.8801 6.59716C37.3434 6.59716 36.8781 6.77988 36.483 7.14844C36.0923 7.51803 35.8963 7.99664 35.8963 8.58426C35.8963 9.17188 36.0923 9.65464 36.483 10.0242C36.8781 10.3886 37.3434 10.5755 37.8801 10.5755C38.4498 10.5755 38.9289 10.3886 39.3069 10.0201C39.5561 9.77611 39.6977 9.43973 39.735 9.00992H37.8801V8.40984H40.3547C40.3845 8.53962 40.393 8.66524 40.393 8.78671V8.78671Z" fill="white" stroke="white" stroke-width="0.102222" stroke-miterlimit="10"/>
<path d="M44.319 6.70525H41.9945V8.2833H44.09V8.88338H41.9945V10.4614H44.319V11.0729H41.3364V6.09375H44.319V6.70525Z" fill="white" stroke="white" stroke-width="0.102222" stroke-miterlimit="10"/>
<path d="M47.0897 11.0729H46.4316V6.70525H45.0059V6.09375H48.5166V6.70525H47.0897V11.0729V11.0729Z" fill="white" stroke="white" stroke-width="0.102222" stroke-miterlimit="10"/>
<path d="M51.0571 11.0729V6.09375H51.7141V11.0729H51.0571Z" fill="white" stroke="white" stroke-width="0.102222" stroke-miterlimit="10"/>
<path d="M54.6263 11.0729H53.9736V6.70525H52.5425V6.09375H56.0574V6.70525H54.6263V11.0729Z" fill="white" stroke="white" stroke-width="0.102222" stroke-miterlimit="10"/>
<path d="M62.7041 10.4333C62.2004 10.9368 61.5765 11.1881 60.8322 11.1881C60.0836 11.1881 59.4596 10.9368 58.956 10.4333C58.4534 9.9308 58.2031 9.31411 58.2031 8.58426C58.2031 7.85441 58.4534 7.23772 58.956 6.73524C59.4596 6.23171 60.0836 5.98047 60.8322 5.98047C61.5722 5.98047 62.1962 6.23171 62.6998 6.73939C63.2067 7.24603 63.4569 7.85856 63.4569 8.58426C63.4569 9.31411 63.2067 9.9308 62.7041 10.4333ZM59.4426 10.0159C59.8216 10.3886 60.2827 10.5755 60.8322 10.5755C61.3773 10.5755 61.8427 10.3886 62.2175 10.0159C62.5955 9.64322 62.7872 9.16461 62.7872 8.58426C62.7872 8.00391 62.5955 7.5253 62.2175 7.15259C61.8427 6.77988 61.3773 6.593 60.8322 6.593C60.2827 6.593 59.8216 6.77988 59.4426 7.15259C59.0646 7.5253 58.8729 8.00391 58.8729 8.58426C58.8729 9.16461 59.0646 9.64322 59.4426 10.0159V10.0159Z" fill="white" stroke="white" stroke-width="0.102222" stroke-miterlimit="10"/>
<path d="M64.3804 11.0729V6.09375H65.179L67.6621 9.96621H67.6909L67.6621 9.009V6.09375H68.3191V11.0729H67.6334L65.0331 7.00944H65.0044L65.0331 7.9708V11.0729H64.3804V11.0729Z" fill="white" stroke="white" stroke-width="0.102222" stroke-miterlimit="10"/>
<path d="M58.0414 18.3454C56.0406 18.3454 54.4061 19.8301 54.4061 21.8784C54.4061 23.9102 56.0406 25.4103 58.0414 25.4103C60.0464 25.4103 61.6809 23.9102 61.6809 21.8784C61.6809 19.8301 60.0464 18.3454 58.0414 18.3454ZM58.0414 24.0192C56.9435 24.0192 55.9991 23.1357 55.9991 21.8784C55.9991 20.6045 56.9435 19.7366 58.0414 19.7366C59.1392 19.7366 60.0879 20.6045 60.0879 21.8784C60.0879 23.1357 59.1392 24.0192 58.0414 24.0192V24.0192ZM50.1096 18.3454C48.1045 18.3454 46.4743 19.8301 46.4743 21.8784C46.4743 23.9102 48.1045 25.4103 50.1096 25.4103C52.1135 25.4103 53.7448 23.9102 53.7448 21.8784C53.7448 19.8301 52.1135 18.3454 50.1096 18.3454ZM50.1096 24.0192C49.0107 24.0192 48.063 23.1357 48.063 21.8784C48.063 20.6045 49.0107 19.7366 50.1096 19.7366C51.2074 19.7366 52.1519 20.6045 52.1519 21.8784C52.1519 23.1357 51.2074 24.0192 50.1096 24.0192ZM40.671 19.4283V20.9295H44.3479C44.2403 21.7684 43.9528 22.3851 43.512 22.8149C42.9753 23.334 42.1394 23.9102 40.671 23.9102C38.4083 23.9102 36.6365 22.1297 36.6365 19.9235C36.6365 17.7173 38.4083 15.9368 40.671 15.9368C41.8945 15.9368 42.7847 16.403 43.4417 17.0072L44.5267 15.9493C43.6078 15.0938 42.3854 14.4366 40.671 14.4366C37.5682 14.4366 34.9604 16.8982 34.9604 19.9235C34.9604 22.9488 37.5682 25.4103 40.671 25.4103C42.3481 25.4103 43.6078 24.8746 44.5981 23.8697C45.6129 22.8803 45.9291 21.4891 45.9291 20.3658C45.9291 20.0169 45.8993 19.6961 45.846 19.4283H40.671ZM79.2663 20.5921C78.9671 19.802 78.0439 18.3454 76.1634 18.3454C74.3 18.3454 72.7486 19.7771 72.7486 21.8784C72.7486 23.8572 74.284 25.4103 76.3423 25.4103C78.0066 25.4103 78.9671 24.4209 79.3621 23.8448L78.127 23.0422C77.7149 23.6298 77.1537 24.0192 76.3423 24.0192C75.5363 24.0192 74.9581 23.6589 74.5875 22.9488L79.4335 20.9939L79.2663 20.5921V20.5921ZM74.3256 21.7684C74.2841 20.4063 75.4106 19.7086 76.2178 19.7086C76.8503 19.7086 77.3869 20.0169 77.5658 20.4582L74.3256 21.7684V21.7684ZM70.3868 25.1954H71.9798V14.8135H70.3868V25.1954ZM67.778 19.1324H67.7248C67.367 18.7192 66.6845 18.3454 65.8198 18.3454C64.0054 18.3454 62.3464 19.8986 62.3464 21.8898C62.3464 23.8697 64.0054 25.4103 65.8198 25.4103C66.6845 25.4103 67.367 25.0335 67.7248 24.6078H67.778V25.1145C67.778 26.4652 67.038 27.1909 65.8443 27.1909C64.8711 27.1909 64.2673 26.5056 64.0182 25.9294L62.6328 26.4932C63.0322 27.4296 64.0895 28.582 65.8443 28.582C67.712 28.582 69.2879 27.5106 69.2879 24.9037V18.5603H67.778V19.1324V19.1324ZM65.9561 24.0192C64.8583 24.0192 63.9394 23.1232 63.9394 21.8898C63.9394 20.645 64.8583 19.7366 65.9561 19.7366C67.038 19.7366 67.8909 20.645 67.8909 21.8898C67.8909 23.1232 67.038 24.0192 65.9561 24.0192V24.0192ZM86.7243 14.8135H82.9144V25.1954H84.5031V21.2617H86.7243C88.4887 21.2617 90.219 20.0169 90.219 18.0371C90.219 16.0583 88.4844 14.8135 86.7243 14.8135V14.8135ZM86.7658 19.8176H84.5031V16.2576H86.7658C87.952 16.2576 88.6292 17.218 88.6292 18.0371C88.6292 18.8407 87.952 19.8176 86.7658 19.8176ZM96.5866 18.3257C95.4387 18.3257 94.2451 18.8199 93.7542 19.9152L95.164 20.4914C95.4675 19.9152 96.0254 19.7283 96.6153 19.7283C97.4395 19.7283 98.2754 20.2111 98.2882 21.0634V21.1724C98.0007 21.0105 97.3852 20.7707 96.6281 20.7707C95.1097 20.7707 93.5625 21.5856 93.5625 23.1066C93.5625 24.4978 94.8062 25.3937 96.2043 25.3937C97.2734 25.3937 97.8633 24.9234 98.2339 24.3763H98.2882V25.1788H99.8226V21.1963C99.8226 19.3556 98.4127 18.3257 96.5866 18.3257ZM96.3949 24.015C95.8753 24.015 95.1512 23.7638 95.1512 23.1357C95.1512 22.3321 96.0542 22.0238 96.8358 22.0238C97.5353 22.0238 97.8633 22.1743 98.2882 22.3726C98.1636 23.334 97.3149 24.015 96.3949 24.015V24.015ZM105.413 18.5531L103.587 23.0536H103.532L101.644 18.5531H99.9312L102.768 24.8425L101.149 28.3422H102.809L107.18 18.5531H105.413V18.5531ZM91.0921 25.1954H92.6851V14.8135H91.0921V25.1954Z" fill="white"/>
<defs>
<linearGradient id="paint0_linear_274_27665" x1="18.5697" y1="26.2641" x2="4.63548" y2="11.9726" gradientUnits="userSpaceOnUse">
<stop stop-color="#00A0FF"/>
<stop offset="0.0066" stop-color="#00A1FF"/>
<stop offset="0.2601" stop-color="#00BEFF"/>
<stop offset="0.5122" stop-color="#00D2FF"/>
<stop offset="0.7604" stop-color="#00DFFF"/>
<stop offset="1" stop-color="#00E3FF"/>
</linearGradient>
<linearGradient id="paint1_linear_274_27665" x1="28.8213" y1="16.8856" x2="8.20915" y2="16.8856" gradientUnits="userSpaceOnUse">
<stop stop-color="#FFE000"/>
<stop offset="0.4087" stop-color="#FFBD00"/>
<stop offset="0.7754" stop-color="#FFA500"/>
<stop offset="1" stop-color="#FF9C00"/>
</linearGradient>
<linearGradient id="paint2_linear_274_27665" x1="21.1485" y1="14.9802" x2="2.25255" y2="-4.40029" gradientUnits="userSpaceOnUse">
<stop stop-color="#FF3A44"/>
<stop offset="1" stop-color="#C31162"/>
</linearGradient>
<linearGradient id="paint3_linear_274_27665" x1="6.21582" y1="33.3515" x2="14.6537" y2="24.6973" gradientUnits="userSpaceOnUse">
<stop stop-color="#32A071"/>
<stop offset="0.0685" stop-color="#2DA771"/>
<stop offset="0.4762" stop-color="#15CF74"/>
<stop offset="0.8009" stop-color="#06E775"/>
<stop offset="1" stop-color="#00F076"/>
</linearGradient>
</defs>
</svg>
