<svg width="30" height="30" viewBox="0 0 30 30" fill="none" xmlns="http://www.w3.org/2000/svg">
<path d="M19.2188 6.52319V20.5857H10.7812V6.52319H19.2188Z" fill="white"/>
<path d="M19.2188 3.75H10.7812C9.22778 3.75 7.96875 5.00903 7.96875 6.5625V23.4375C7.96875 24.991 9.22778 26.25 10.7812 26.25H19.2188C20.7722 26.25 22.0312 24.991 22.0312 23.4375V6.5625C22.0312 5.00903 20.77 3.75 19.2188 3.75ZM15 24.8438C14.22 24.8438 13.5938 24.2175 13.5938 23.4375C13.5938 22.6575 14.22 22.0312 15 22.0312C15.78 22.0312 16.4062 22.6575 16.4062 23.4375C16.4062 24.2175 15.7822 24.8438 15 24.8438ZM19.2188 6.52295V20.5854H10.7812V6.52295H19.2188Z" fill="#5D9ED3"/>
</svg>
